<?xml version="1.0" encoding="UTF-8" standalone="no"?>
<!-- Created with Inkscape (http://www.inkscape.org/) -->

<svg
   width="32"
   height="32"
   viewBox="0 0 8.4666666 8.4666666"
   version="1.1"
   id="svg600"
   sodipodi:docname="organiseur-icon.svg"
   inkscape:version="1.2.2 (732a01da63, 2022-12-09)"
   inkscape:export-filename="C:\Users\mistd\Desktop\icons\icon-180x180.png"
   inkscape:export-xdpi="540"
   inkscape:export-ydpi="540"
   xmlns:inkscape="http://www.inkscape.org/namespaces/inkscape"
   xmlns:sodipodi="http://sodipodi.sourceforge.net/DTD/sodipodi-0.dtd"
   xmlns="http://www.w3.org/2000/svg"
   xmlns:svg="http://www.w3.org/2000/svg">
  <sodipodi:namedview
     id="namedview602"
     pagecolor="#ffffff"
     bordercolor="#000000"
     borderopacity="0.25"
     inkscape:showpageshadow="2"
     inkscape:pageopacity="0.0"
     inkscape:pagecheckerboard="true"
     inkscape:deskcolor="#d1d1d1"
     inkscape:document-units="mm"
     showgrid="false"
     inkscape:zoom="22.627417"
     inkscape:cx="1.0827573"
     inkscape:cy="20.461902"
     inkscape:window-width="2880"
     inkscape:window-height="1514"
     inkscape:window-x="-11"
     inkscape:window-y="-11"
     inkscape:window-maximized="1"
     inkscape:current-layer="layer1" />
  <defs
     id="defs597" />
  <g
     inkscape:label="Calque 1"
     inkscape:groupmode="layer"
     id="layer1">
    <path
       style="display:inline;fill:#ececec;fill-opacity:1;stroke:none;stroke-width:0.031782;stroke-dasharray:none;stroke-opacity:1"
       d="M 1.8929994,1.6499569 1.7262031,7.8717344 6.7934606,6.9144603 6.6120034,0.54147275 5.4187442,1.2963326 4.5759823,1.4553903 3.6722376,1.4086723 2.7802751,1.8574591 Z"
       id="path1063"
       sodipodi:nodetypes="ccccccccc" />
    <g
       id="g1007"
       transform="translate(-0.10600398,-0.15460646)"
       sodipodi:insensitive="true"
       style="display:inline">
      <path
         style="fill:#000000;stroke-width:3.37229;stroke-opacity:0.526667"
         id="path952"
         d="m 1.8455322,1.806025 c 0.013183,0.1246402 0.010398,0.2502055 0.00799,0.3752897 -0.00492,0.2242953 -0.02459,0.4478117 -0.040537,0.6714797 -0.018088,0.2469803 -0.022326,0.4946366 -0.025225,0.7421668 -0.00174,0.1898559 -0.0017,0.3797216 -0.00156,0.5695838 1.246e-4,0.1144337 2.338e-4,0.2288673 2.9e-4,0.343301 3.777e-4,0.1282652 0.00452,0.2564922 0.0068,0.3847367 0.00176,0.1037113 0.00229,0.207438 0.00252,0.3111625 -0.00233,0.1199867 -0.00687,0.2399131 -0.012701,0.3597757 -0.0065,0.152788 -0.013905,0.3055355 -0.019354,0.4583666 -0.0037,0.1084809 -0.0047,0.2170223 -0.00514,0.3255566 0.00121,0.083799 -0.0056,0.1673808 -0.011713,0.2508759 -0.00632,0.103662 -0.014105,0.2072323 -0.020128,0.3109125 -0.00326,0.064443 -0.00906,0.1286902 -0.011938,0.1931638 -7.256e-4,0.057808 -0.00758,0.1152119 -0.013018,0.1726875 -0.00424,0.05239 -0.010308,0.1045927 -0.014274,0.1570139 -0.00188,0.034817 -0.00664,0.069397 -0.011356,0.1039227 -0.00398,0.043198 -0.010578,0.086068 -0.014833,0.129234 -0.0039,0.047917 -0.00817,0.095799 -0.013427,0.1435891 -0.00324,0.049454 -0.010128,0.098528 -0.014581,0.1478601 -0.00266,0.041821 -0.00594,0.1072129 0.015573,0.1442583 0.012872,0.022175 0.030691,0.041085 0.046037,0.061626 0.017065,0.010139 0.032731,0.023142 0.051196,0.030437 0.062023,0.024504 0.1322853,0.011804 0.1964859,0.00708 0.065674,-0.00436 0.1311327,-0.011061 0.1968774,-0.014406 0.078654,-0.00295 0.1573875,-0.00282 0.2360855,-0.00298 0.1153397,-9.518e-4 0.2307712,-0.00873 0.3443182,-0.029841 0.027517,-0.00511 0.054729,-0.011753 0.082094,-0.01763 C 2.9332006,8.1052209 3.0580356,8.0547679 3.1817319,8.002869 3.290305,7.956628 3.3991995,7.911341 3.5095365,7.8694718 3.6081655,7.8287908 3.711677,7.8033398 3.8152673,7.7791808 3.9196329,7.7541018 4.0252367,7.7348118 4.1313825,7.7191218 4.2513207,7.7016908 4.3720631,7.6909948 4.4928014,7.6809898 4.6572946,7.6698838 4.820923,7.6500108 4.9845146,7.6299858 c 0.1449564,-0.017863 0.2891972,-0.04103 0.434195,-0.058546 0.1365902,-0.014348 0.2735351,-0.023648 0.409805,-0.041029 0.086926,-0.00873 0.171685,-0.028843 0.2544399,-0.056261 0.060543,-0.019175 0.1192776,-0.042779 0.176827,-0.069535 0.065106,-0.030933 0.1313575,-0.059357 0.1976398,-0.087651 0.037421,-0.017033 0.076489,-0.02962 0.1156591,-0.041835 0.034009,-0.00879 0.068108,-0.016783 0.102585,-0.023576 0.047834,-0.012158 0.0974,-0.0186 0.143555,-0.036857 0.035245,-0.01394 0.041114,-0.019234 0.071976,-0.038142 0.065411,-0.051949 0.094987,-0.1019657 0.1202924,-0.1797532 0.022125,-0.086526 0.022984,-0.1765109 0.025254,-0.2652632 0.00615,-0.1176944 0.00754,-0.2355534 0.00889,-0.3533794 0.00161,-0.1819723 0.00146,-0.3639541 0.00152,-0.5459318 C 7.0480167,5.655007 7.0434028,5.4778238 7.0403528,5.3006414 7.0379472,5.1682747 7.0269605,5.0363366 7.0201973,4.9041688 7.0131664,4.7001844 6.988558,4.4975228 6.964387,4.29503 6.9373577,4.0816302 6.9151415,3.8677019 6.9012757,3.6530402 6.8872376,3.4613962 6.8768429,3.2695005 6.8692676,3.0774978 6.8640955,2.8854654 6.8621713,2.6934449 6.8530822,2.5015362 6.8424287,2.3378567 6.8266359,2.1745706 6.8153622,2.0109399 c -0.0054,-0.1118262 -0.010059,-0.223703 -0.014205,-0.3355858 -0.00286,-0.087043 -0.00422,-0.174125 -0.00487,-0.2612093 -8.329e-4,-0.063594 0.00377,-0.1270957 0.00871,-0.1904499 0.00402,-0.051785 0.014675,-0.1025681 0.024795,-0.1533893 0.00945,-0.044181 0.018606,-0.088396 0.029477,-0.13225556 0.011151,-0.04046 0.016723,-0.081929 0.019481,-0.1237095 0.00146,-0.0294479 0.00128,-0.0589441 0.00128,-0.0884187 -8.96e-5,-0.21030571 -0.2975067,-0.21017598 -0.2974151,1.297e-4 v 0 c 1.1e-5,0.0232072 1.698e-4,0.046427 -6.84e-4,0.0696227 -0.00137,0.024024 -0.0045,0.047699 -0.011347,0.070879 -0.011956,0.048315 -0.022101,0.097005 -0.032473,0.14567866 -0.012408,0.062347 -0.024804,0.1247727 -0.029617,0.1882932 -0.00561,0.071799 -0.010522,0.1437728 -0.00961,0.2158393 6.841e-4,0.09003 0.00211,0.1800583 0.00507,0.2700452 0.00429,0.1150253 0.00899,0.2300494 0.014708,0.3450101 0.011173,0.1615076 0.02655,0.3226915 0.037348,0.4842292 0.00911,0.1911167 0.010724,0.3823565 0.016081,0.5735934 0.0077,0.1945045 0.018176,0.3889044 0.0324,0.5830467 0.014323,0.2200013 0.036815,0.4392846 0.064585,0.6579965 0.023382,0.1958373 0.047432,0.3918162 0.054103,0.5891076 0.00661,0.1288 0.017286,0.2573752 0.019814,0.3863627 0.00302,0.1754451 0.0076,0.3508912 0.00676,0.5263754 -6e-5,0.1808725 9.11e-5,0.3617488 -0.00152,0.5426159 -0.00134,0.1164542 -0.00277,0.2329343 -0.00881,0.3492593 -0.00155,0.061395 -0.00226,0.1231619 -0.011771,0.1839619 -0.00166,0.006 -0.00238,0.013667 -0.00513,0.01946 -6.246e-4,0.00134 -0.00354,0.00411 -0.00206,0.00397 0.00348,-3.569e-4 0.00626,-0.00314 0.0094,-0.0047 -0.013702,0.012677 -0.030075,0.014502 -0.048425,0.018752 -0.011634,0.00271 -0.023324,0.00515 -0.034984,0.00772 -0.00957,0.00223 -0.019142,0.00444 -0.028715,0.00665 -0.04488,0.00896 -0.089365,0.019365 -0.133505,0.03146 -0.048613,0.015261 -0.097032,0.031215 -0.143581,0.052136 -0.069323,0.029593 -0.1385929,0.059367 -0.2066966,0.091697 -0.047312,0.022211 -0.095727,0.041367 -0.1456211,0.05706 -0.064104,0.021934 -0.1300837,0.036536 -0.1976007,0.043218 -0.1355869,0.017444 -0.2719389,0.025996 -0.4078101,0.040788 -0.1451044,0.017637 -0.2894993,0.040522 -0.4345502,0.05859 -0.1597454,0.019555 -0.3195129,0.039068 -0.4801482,0.049817 -0.1271211,0.010544 -0.2542361,0.021926 -0.3805068,0.040337 -0.1141639,0.017003 -0.2277821,0.037631 -0.3400496,0.064621 -0.1164706,0.027199 -0.2326634,0.056514 -0.343675,0.1018633 -0.1135319,0.043101 -0.2256245,0.089614 -0.337343,0.1372075 -0.1069634,0.044886 -0.2145915,0.089438 -0.3278974,0.1160182 -0.02191,0.00484 -0.043689,0.01033 -0.06573,0.014547 -0.098236,0.018761 -0.1981857,0.025272 -0.2980397,0.026122 -0.083602,1.736e-4 -0.1672439,4.33e-5 -0.2507942,0.00337 -0.067913,0.00354 -0.1355563,0.010162 -0.2033888,0.014814 -0.018008,0.00134 -0.045369,0.00327 -0.063954,0.00489 -0.00436,3.867e-4 -0.00871,8.923e-4 -0.013065,0.00134 -0.00206,2.127e-4 -0.00803,-2.974e-4 -0.00618,6.543e-4 0.0643,0.032681 -0.018168,-0.021916 0.055779,0.030669 0.01042,0.016126 0.02233,0.031376 0.031244,0.048378 0.00324,0.00617 0.00357,0.013494 0.0048,0.020358 3.628e-4,0.00206 6.691e-4,0.00817 -6.59e-5,0.00623 -0.00362,-0.00953 0.00155,-0.024219 2.504e-4,-0.033104 0.00405,-0.047249 0.011117,-0.094209 0.013958,-0.1415802 0.00538,-0.049094 0.00981,-0.098281 0.013831,-0.1475016 0.00366,-0.039279 0.010173,-0.078231 0.013473,-0.1175553 0.00553,-0.040483 0.010836,-0.08106 0.013254,-0.1218678 0.00378,-0.050542 0.00979,-0.1008596 0.013796,-0.1513771 0.00587,-0.062412 0.013127,-0.1247575 0.014044,-0.1875191 0.00274,-0.063101 0.00868,-0.125966 0.011727,-0.1890454 0.00591,-0.1021849 0.013634,-0.2042585 0.019834,-0.3064266 0.0066,-0.090321 0.013722,-0.1807386 0.012503,-0.2713821 4.224e-4,-0.1054043 0.00137,-0.2108138 0.00495,-0.3161664 0.0054,-0.1515497 0.012766,-0.303016 0.019192,-0.4545233 0.00606,-0.124881 0.010836,-0.2498298 0.013051,-0.3748437 C 2.0929889,5.097834 2.0924415,4.9925559 2.0906518,4.887293 2.0884036,4.7607628 2.0843232,4.6342501 2.083896,4.5077012 2.0838398,4.3932483 2.0837307,4.2787956 2.083606,4.1643429 2.083477,3.9757076 2.0834309,3.7870686 2.0851573,3.5984393 2.0879787,3.3568043 2.092003,3.1150409 2.1096491,2.8739406 2.1259552,2.645122 2.1459956,2.4164556 2.1508877,2.1869939 2.153518,2.0484125 2.1560248,1.9093091 2.1409169,1.7712731 2.1163442,1.5624078 1.8209646,1.5971585 1.845537,1.8060234 Z" />
      <path
         style="fill:#000000;stroke-width:3.37229;stroke-opacity:0.526667"
         id="path956"
         d="m 2.5099597,1.586801 c 0.015102,0.077592 0.031352,0.1549901 0.04509,0.2328458 0.01251,0.076684 0.026396,0.153151 0.036221,0.2302424 5.978e-4,0.0059 0.00128,0.0118 0.0018,0.01771 7.167e-4,0.00816 0.0018,0.013609 4.401e-4,0.021071 -4.014e-4,0.0022 -8.506e-4,0.00764 -0.00256,0.00621 -9.16e-4,-7.762e-4 -2.25e-4,-0.00238 -3.39e-4,-0.00359 -0.00822,-0.00724 -0.039834,0.030411 0.01715,-0.02485 0.025994,-0.025208 0.048924,-0.019908 0.081889,-0.017253 0.011487,0.0057 0.025392,0.00801 0.034463,0.017083 0.044476,0.044437 0.058126,0.082722 0.038569,0.1393993 -0.00124,0.00212 -0.00434,0.00401 -0.0037,0.00638 5.651e-4,0.00209 0.00407,0.00151 0.00606,0.00237 0.00289,0.00126 0.00559,0.00298 0.00857,0.00401 0.021267,0.00737 0.042013,0.013404 0.062575,0.022819 6.961e-4,0.00127 0.00351,0.00353 0.00208,0.00382 -0.0027,5.414e-4 -0.0055,-0.00117 -0.0078,-0.00268 -0.023526,-0.015356 -0.025591,-0.042609 -0.025343,-0.068106 0.00755,-0.029847 0.00101,-0.00362 -0.00274,-0.01123 -0.1609563,0.1353572 0.030467,0.3629836 0.1914241,0.2276263 v 0 c 0.047113,-0.042149 0.076124,-0.076772 0.098207,-0.1379753 0.00344,-0.019381 0.0097,-0.038468 0.010319,-0.058142 0.00252,-0.081004 -0.039811,-0.1530455 -0.1038598,-0.2000844 -0.0144,-0.010578 -0.030835,-0.018056 -0.046253,-0.027085 -0.093175,-0.038114 -0.1905402,-0.066625 -0.291307,-0.036139 -0.022198,0.00671 -0.042627,0.018282 -0.063941,0.027423 -0.03607,0.027384 -0.060072,0.040277 -0.084525,0.079664 -0.054816,0.088286 -0.053218,0.1668722 0.014667,0.2507318 0.014881,0.018382 0.03951,0.026007 0.059264,0.039011 0.023683,0.00515 0.046847,0.014157 0.071048,0.015437 0.040327,0.00214 0.088655,-0.012013 0.122171,-0.034342 0.019074,-0.012707 0.035292,-0.029438 0.050907,-0.046214 0.01488,-0.015986 0.028458,-0.04664 0.037888,-0.06541 0.00429,-0.012716 0.00936,-0.025194 0.012885,-0.038145 0.013074,-0.048099 0.011095,-0.098415 0.005,-0.1473433 C 2.87574,1.9302796 2.8613499,1.849077 2.8478985,1.7677209 2.8328322,1.683112 2.815631,1.5988676 2.7984968,1.5146667 2.7474901,1.3106402 2.4589531,1.3827745 2.5099597,1.586801 Z" />
      <path
         style="fill:#000000;stroke-width:3.37229;stroke-opacity:0.526667"
         id="path958"
         d="m 3.4224754,1.4583667 c 0.028793,0.06177 0.051608,0.1263306 0.071246,0.1915451 0.017429,0.054887 0.025149,0.1118813 0.032848,0.1687239 0.00431,0.029595 0.00643,0.059377 0.00718,0.089249 4.759e-4,0.012904 -0.00175,0.025355 -0.00317,0.038653 -3.866e-4,0.00366 -0.00259,0.0144 -0.00125,0.010971 0.00788,-0.020017 0.013967,-0.040692 0.02095,-0.061038 0.09059,0.017076 0.1813123,0.03347 0.2717714,0.05123 0.00428,8.417e-4 -0.00101,0.040654 -0.00407,0.047995 -0.01323,0.031821 -0.02031,0.029867 -0.051516,0.057113 -0.019466,0.012635 -0.038324,0.010432 -0.05993,0.00907 -0.00155,0.00121 0.015534,0.0095 0.010769,0.00942 -0.00742,-1.233e-4 -0.011358,-0.012648 -0.017104,-0.015352 -5.948e-4,-2.773e-4 -1.428e-4,0.00129 -2.144e-4,0.00194 9.2e-6,0.0011 2.968e-4,0.00436 2.7e-5,0.00329 -0.00452,-0.017816 -0.00417,-0.03582 0.00425,-0.05215 0.00506,-0.00715 0.00779,-0.010555 0.013853,-0.015668 -0.1793207,0.1098748 -0.023933,0.3634731 0.1553871,0.253598 v 0 c 0.024424,-0.016153 0.047446,-0.032326 0.065841,-0.055738 0.00632,-0.00889 0.013146,-0.017437 0.01896,-0.026662 0.035904,-0.056967 0.044504,-0.1241804 0.027524,-0.1888554 -0.0084,-0.026815 -0.011249,-0.040023 -0.025429,-0.065829 -0.022488,-0.040922 -0.055329,-0.07326 -0.093994,-0.098797 -0.00997,-0.0059 -0.019585,-0.012446 -0.029907,-0.017707 -0.064614,-0.032934 -0.1297652,-0.034402 -0.1971311,-0.00945 -0.021101,0.015215 -0.044554,0.027612 -0.063305,0.045645 -0.036711,0.035304 -0.047616,0.089711 -0.050144,0.1377891 -4.46e-4,0.00836 -0.00588,0.022475 0.00211,0.025026 0.089143,0.028512 0.1823883,0.042098 0.2735827,0.063148 0.00777,-0.021577 0.01639,-0.042862 0.023288,-0.064732 0.00143,-0.00453 0.00107,-0.00944 0.00157,-0.014168 0.00271,-0.02545 0.00568,-0.051043 0.0046,-0.076679 -0.00114,-0.040601 -0.00404,-0.081103 -0.00979,-0.1213356 C 3.8114001,1.7059998 3.8004099,1.633384 3.7782416,1.5632788 3.7515136,1.4762288 3.7214436,1.3894698 3.6793781,1.3085068 3.573411,1.1268491 3.3165083,1.276709 3.4224754,1.4583667 Z" />
      <path
         style="fill:#000000;stroke-width:3.37229;stroke-opacity:0.526667"
         id="path960"
         d="m 4.2730266,1.296262 c 0.025061,0.064573 0.047864,0.1299593 0.071931,0.1949007 0.020221,0.046568 0.035169,0.093971 0.040797,0.1443488 0.00316,0.035697 0.00374,0.071544 0.00373,0.107358 -1.567e-4,0.023319 -3.271e-4,0.046639 -4.462e-4,0.069958 -0.00179,0.1161574 0.3527166,-0.018722 0.2797873,0.073116 -0.010196,0.01136 -0.018521,0.013572 -0.033088,0.015567 -0.026625,0.00277 -0.045999,-0.011374 -0.067801,-0.023192 -0.0013,-7.167e-4 -0.0036,-0.00366 -0.00393,-0.0022 -5.057e-4,0.00215 0.00202,0.00391 0.00308,0.00585 0.00202,0.00373 0.0041,0.00743 0.00615,0.01114 0.00164,0.00343 0.00848,0.00896 0.00491,0.010274 -0.0036,0.00134 -0.00427,-0.00643 -0.00574,-0.00997 -0.00922,-0.022019 -0.00371,-0.045209 0.00487,-0.066604 0.010229,-0.012521 -0.013738,0.00618 -0.016311,0.00763 -0.1774629,0.1128612 -0.017858,0.3638262 0.1596005,0.2509689 v 0 c 0.034955,-0.022891 0.068469,-0.047482 0.094856,-0.080453 0.027645,-0.04179 0.034222,-0.044861 0.046901,-0.099988 0.012415,-0.053978 -0.00578,-0.1129256 -0.03121,-0.1600235 -0.044956,-0.07692 -0.095535,-0.1379542 -0.1935999,-0.1408392 -0.01171,6.305e-4 -0.023463,6.781e-4 -0.035127,0.00189 -0.047207,0.0049 -0.091239,0.026939 -0.1284541,0.055291 -0.022157,0.021504 -0.042571,0.041582 -0.057757,0.068719 -0.00554,0.0099 -0.026071,0.02682 -0.015308,0.030406 0.2871241,0.095658 0.2848468,0.1561687 0.2855829,0.053992 1.257e-4,-0.023856 3.272e-4,-0.047711 4.461e-4,-0.071567 -2.2e-5,-0.047942 -0.00104,-0.095938 -0.00596,-0.143666 -0.00398,-0.030769 -0.00477,-0.042105 -0.011573,-0.072759 C 4.6588019,1.4787794 4.6414514,1.4331579 4.623838,1.3877933 4.6001769,1.3239638 4.5778051,1.2596744 4.55312,1.1962264 4.4823862,0.99817274 4.2022965,1.0982052 4.2730298,1.2962586 Z" />
      <path
         style="fill:#000000;stroke-width:3.37229;stroke-opacity:0.526667"
         id="path962"
         d="m 5.2004205,0.96141574 c 0.0019,0.015756 0.00329,0.031586 0.00572,0.047271 0.00528,0.034131 0.017842,0.096784 0.024228,0.1310986 0.010623,0.057108 0.020736,0.1143187 0.030648,0.1715536 0.011426,0.060644 0.02297,0.121355 0.027797,0.1829372 0.0025,0.040011 -2.924e-4,0.080302 0.013743,0.1188668 0.00563,0.015489 0.01474,0.029485 0.02211,0.044227 0.045553,0.061362 0.09765,0.077469 0.1683191,0.084811 -0.043164,-0.00572 -0.08192,-0.037031 -0.094189,-0.079258 -0.0022,-0.00758 -0.00259,-0.015556 -0.00389,-0.023334 -1.522e-4,-9.101e-4 -2.1e-4,-0.00362 -4.461e-4,-0.00273 -8.625e-4,0.00308 -7.138e-4,0.00637 -0.00143,0.0095 -1.803e-4,8.001e-4 1.136e-4,-0.00323 -1.621e-4,-0.00245 -0.00273,0.00764 -0.00507,0.016378 -0.00771,0.024106 0.01328,-0.024952 -0.012209,0.01259 -8.923e-4,-0.00317 0.00235,-0.00328 0.0064,-0.00558 0.00761,-0.00943 8.923e-4,-0.00284 -0.00437,0.00407 -0.00656,0.00609 0.00206,-0.00642 0.04012,-0.022591 0.014359,-0.012633 -0.1959979,0.076244 -0.088172,0.3534278 0.1078266,0.2771832 v 0 c 0.029138,-0.011381 0.057321,-0.024856 0.080276,-0.046684 0.035077,-0.032602 0.061517,-0.070483 0.078846,-0.1152309 0.013268,-0.038871 0.024278,-0.078556 0.025682,-0.1199065 -0.00314,-0.042326 -6.87e-5,-0.052188 -0.01784,-0.091318 -0.025986,-0.057215 -0.078678,-0.093934 -0.1391845,-0.1051367 -0.037839,-0.00478 -0.022113,-0.00404 -0.010533,0.00316 0.035508,0.022081 0.027607,0.016917 0.0509,0.046823 0.013101,0.032218 0.00958,0.017066 0.013188,0.046358 C 5.5890922,1.5462 5.5881224,1.53998 5.5880331,1.53789 5.5869931,1.515293 5.5874978,1.492602 5.5852631,1.470054 5.5793531,1.399598 5.5676711,1.329906 5.5540851,1.2605415 5.5438671,1.2016375 5.5334591,1.1427606 5.5225251,1.0839861 c -0.00691,-0.037146 -0.015189,-0.07405 -0.021141,-0.11136196 -0.00208,-0.013074 -0.00325,-0.02628 -0.00487,-0.03942 C 5.4765935,0.72385976 5.1805159,0.75205761 5.2004548,0.96141594 Z" />
      <path
         style="fill:#000000;stroke-width:3.37229;stroke-opacity:0.526667"
         id="path984"
         d="M 2.8615932,3.727035 C 2.8810332,3.711073 2.8987032,3.69267 2.9199142,3.67915 2.9737832,3.644812 3.0870096,3.597315 3.1415497,3.580939 3.1985457,3.563826 3.2586157,3.55822 3.3154777,3.540666 3.3862497,3.518818 3.4536884,3.487276 3.5236581,3.462981 3.5998111,3.436538 3.677046,3.413321 3.7537397,3.38849 3.8301607,3.37588 3.9065801,3.363269 3.9830002,3.35066 4.0529302,3.33234 4.1217275,3.308963 4.1927899,3.295697 4.2545229,3.284172 4.3182845,3.286947 4.3802094,3.276511 4.4320414,3.267761 4.481423,3.247355 4.5331975,3.238279 c 0.042026,-0.00736 0.085137,-0.00612 0.1275292,-0.010938 0.033622,-0.00382 0.066936,-0.010004 0.1004032,-0.015002 0.073604,0.028599 0.142852,-0.015525 0.2162362,-0.00972 0.022238,0.00175 0.043692,0.020516 0.065259,0.01482 0.1415831,-0.037401 -0.022247,-0.086986 0.133792,-0.015004 0.06207,-0.01377 0.1015666,-0.072194 0.1646866,-0.082521 0.017563,-0.00289 0.036089,0.00673 0.053339,0.00235 0.017982,-0.00456 0.030283,-0.033398 0.048056,-0.028079 0.029304,0.00878 0.044759,0.041707 0.06714,0.062562 0.014363,-0.018029 0.02559,-0.039085 0.043087,-0.054093 0.016566,-0.014211 0.0812,-0.035285 0.099385,-0.042852 C 5.788977,3.002863 5.6271877,3.066802 5.7594372,3.00939 5.7782342,3.00123 5.7976702,2.994638 5.8167862,2.987259 5.9020132,2.8519859 5.8028102,2.968948 5.930686,2.921045 5.950768,2.913525 5.962019,2.891752 5.977686,2.877107 6.063197,2.84043 6.011329,2.7194995 5.925818,2.756176 v 0 C 5.907384,2.769438 5.891412,2.787063 5.870519,2.79596 5.848861,2.80518 5.824282,2.80483 5.801162,2.80926 5.78136,2.81784 5.76156,2.82642 5.741759,2.834998 5.726184,2.847599 5.711438,2.861304 5.695028,2.872799 5.664936,2.89388 5.5926711,2.934053 5.5548282,2.934412 5.5369452,2.9345815 5.5198452,2.920237 5.5022752,2.923587 c -0.015716,0.00299 -0.025876,0.018823 -0.038812,0.028237 -0.117509,0.00497 0.01797,-0.00505 -0.098367,0.017298 -0.016533,0.00318 -0.034263,-0.0011 -0.050366,0.00381 -0.016546,0.00505 -0.02906,0.019335 -0.045278,0.025357 -0.049145,0.018255 -0.06534,0.011542 -0.1169625,0.00818 -0.021399,0.00487 -0.042493,0.011361 -0.064199,0.0146 -0.021486,0.0032 -0.044296,-0.0019 -0.065003,0.00468 -0.022435,0.00712 -0.037594,0.035497 -0.06113,0.035333 C 4.9355807,3.060896 4.9176567,3.022994 4.8911417,3.024826 4.5848272,3.045984 5.0839533,3.121347 4.7348478,3.053539 4.3808917,3.214246 4.944012,2.979159 4.5050806,3.080443 4.4506866,3.092994 4.4133656,3.150165 4.3588108,3.162001 4.2954668,3.175744 4.228567,3.144436 4.1645093,3.154331 4.0915553,3.1656 4.0244702,3.201088 3.9544508,3.224466 3.8755958,3.231146 3.7967408,3.23782 3.717886,3.244494 3.0161812,3.4972869 3.931748,3.175863 3.2632313,3.3849596 c -0.057753,0.018065 -0.112341,0.045071 -0.169217,0.065727 -0.045715,0.016602 -0.092364,0.030509 -0.1384605,0.046018 -0.032097,0.010803 -0.065635,0.018158 -0.096119,0.032907 -0.024791,0.011995 -0.045481,0.031072 -0.068221,0.046607 -0.1066385,0.049765 -0.036261,0.2005739 0.070377,0.1508092 z" />
      <path
         style="fill:#000000;stroke-width:3.37229;stroke-opacity:0.526667"
         id="path986"
         d="m 2.7948538,4.7183462 c 0.029775,-0.028284 0.053875,-0.057312 0.099022,-0.06496 0.031205,-0.00528 0.063825,0.012566 0.094765,0.0059 0.028935,-0.00623 0.051003,-0.030198 0.077674,-0.043032 0.084994,-0.0409 0.059201,-0.031507 0.1499704,-0.019764 0.021191,-0.00651 0.043656,-0.00979 0.063576,-0.01952 0.031072,-0.015178 0.084143,-0.070686 0.1221384,-0.070835 0.029827,-1.169e-4 0.054644,0.024659 0.083529,0.032093 0.082141,0.021138 0.070509,0.012649 0.1400532,-0.021729 0.1385237,-0.040923 -0.020662,0.014415 0.1001851,-0.05393 0.027993,-0.015832 0.042881,-0.00744 0.070362,-0.00121 0.099431,-0.028903 0.058558,-0.1695191 -0.040873,-0.1406174 v 0 c -0.058361,0.020429 -0.1043105,0.012881 -0.1511564,0.064723 -0.023404,-0.00104 -0.047029,2.67e-4 -0.070212,-0.0031 -0.026592,-0.00387 -0.051818,-0.021982 -0.078464,-0.018505 -0.027506,0.00359 -0.047168,0.030763 -0.073843,0.038377 -0.023422,0.00669 -0.048787,7.435e-4 -0.072982,0.00353 -0.044434,0.00513 -0.087359,0.02012 -0.1318544,0.024903 -0.143503,0.09096 0.017842,0.00515 -0.1509276,0.042231 -0.029179,0.00641 -0.053054,0.028677 -0.081933,0.036331 -0.030139,0.00798 -0.062318,0.00447 -0.092999,0.010027 -0.042491,0.00769 -0.082904,0.024617 -0.12532,0.032793 -0.1175878,0.048995 -0.048298,0.2152892 0.069289,0.1662944 z" />
      <path
         style="fill:#000000;stroke-width:3.37229;stroke-opacity:0.526667"
         id="path988"
         d="m 4.5752548,4.1942415 c 0.016081,-0.018514 0.026615,-0.043991 0.048248,-0.055543 0.024198,-0.012923 0.05399,-0.00984 0.081166,-0.013566 0.062064,-0.00852 0.1178266,-0.00374 0.1729801,-0.042033 0.1937997,-0.134564 -0.040139,-0.04212 0.1644959,-0.1094072 0.05226,0.00374 0.098381,-0.032109 0.1494443,-0.034299 0.083167,-0.00357 0.037164,0.027773 0.109215,0.0049 0.011876,-0.00377 0.021447,-0.012702 0.032373,-0.018693 0.00859,-0.00471 0.017435,-0.00893 0.026152,-0.01339 0.00764,-0.00259 0.014981,-0.00911 0.022931,-0.00773 0.032861,0.00567 0.016372,0.031448 0.052303,0.011219 0.011185,-0.00629 0.015986,-0.022767 0.028409,-0.025979 0.011207,-0.00289 0.021848,0.00796 0.033235,0.010038 0.010679,0.00193 0.021661,0.00128 0.03249,0.00193 0.022776,-0.023852 0.04025,0.016284 0.059713,0.01078 0.012435,-0.00352 0.01441,-0.025129 0.027059,-0.027758 0.011173,-0.00232 0.019356,0.012801 0.030362,0.015823 0.00848,0.00232 0.017565,-1.687e-4 0.026346,-2.529e-4 0.00821,0.00335 0.016403,0.00671 0.024605,0.010061 0.040833,-0.1143824 -0.012277,3.867e-4 0.044207,0.015272 0.017744,0.00468 0.011609,-0.03805 0.027065,-0.047943 0.010151,-0.0065 0.023487,0.00538 0.035228,0.00807 0.011284,-0.00977 0.022569,-0.019537 0.03385,-0.029304 0.084007,-0.02258 0.052075,-0.1413847 -0.031933,-0.1188045 v 0 c -0.00907,-0.00241 -0.018149,-0.00481 -0.027222,-0.00723 -0.00787,0.00481 -0.014552,0.016192 -0.023612,0.014442 -0.01187,-0.00229 -0.014966,-0.023136 -0.027009,-0.024207 -0.019011,-0.0017 -0.026958,0.034123 -0.045449,0.034817 -0.066792,-0.040516 0.01341,0.0036 -0.04482,-0.016873 -0.0073,-0.00256 -0.013702,-0.016598 -0.019882,-0.011954 -0.014571,0.010949 -0.010184,0.041047 -0.027273,0.047399 -0.012198,0.00453 -0.019008,-0.017777 -0.028514,-0.026664 -0.010713,0.00604 -0.021414,0.012072 -0.032123,0.01811 -0.011242,-0.00502 -0.022693,-0.0096 -0.03373,-0.015058 -0.012227,-0.00605 -0.022426,-0.018205 -0.036008,-0.019439 -0.011936,-0.00107 -0.021708,0.010848 -0.033476,0.013122 -0.011477,0.00223 -0.023567,-0.00197 -0.035068,1.208e-4 -0.014865,0.00271 -0.049305,0.019764 -0.063203,0.026248 -0.011959,1.255e-4 -0.023996,0.00175 -0.035873,3.866e-4 -0.025167,-0.00291 -0.067515,-0.019546 -0.093301,-0.014469 -0.020111,0.00396 -0.037419,0.016759 -0.055934,0.025557 -0.09646,0.045829 -0.033716,0.023374 -0.1445347,0.053469 -0.028796,0.012453 -0.05829,0.0234 -0.086389,0.037357 -0.029997,0.014898 -0.055351,0.0403 -0.087669,0.04909 -0.031721,0.00863 -0.067042,-0.00761 -0.098607,0.00157 -0.02818,0.00819 -0.047287,0.03527 -0.07349,0.04849 -0.028648,0.014455 -0.1071208,0.036364 -0.1407708,0.046306 -0.1244774,0.045264 -0.060464,0.2213021 0.064014,0.1760377 z" />
      <path
         style="fill:#000000;stroke-width:3.37229;stroke-opacity:0.526667"
         id="path990"
         d="M 2.9464102,5.700909 C 3.1313302,5.5885657 2.8505892,5.748028 3.1130345,5.647859 3.1525315,5.632783 3.1822365,5.59791 3.2213648,5.581903 3.3024818,5.54872 3.4260377,5.539255 3.5093464,5.51691 3.5601434,5.503285 3.6089684,5.483158 3.6587797,5.466281 c 0.049976,-0.025751 0.09426,-0.069393 0.1499286,-0.07725 0.057662,-0.00814 0.1135495,0.030818 0.1717736,0.03184 0.047727,8.328e-4 0.2838091,-0.05148 0.3293818,-0.057865 0.240619,-0.03371 0.072955,0.022408 0.282477,-0.067542 0.039258,0.00264 0.078516,0.00529 0.1177732,0.00794 0.032069,-4.164e-4 0.064183,-0.00302 0.096207,-0.00128 0.026057,0.00143 0.05252,0.01816 0.077546,0.010758 0.024014,-0.0071 0.034301,-0.03751 0.055887,-0.050203 0.020778,-0.012218 0.069804,-0.012402 0.0931,-0.013696 0.028745,0.00921 0.050527,-0.023436 0.077227,-0.021813 0.015133,9.22e-4 0.026732,0.016665 0.04185,0.017803 0.00633,4.758e-4 0.062113,-0.025111 0.066235,-0.027517 0.012563,-0.00733 0.023826,-0.016694 0.035741,-0.025039 0.013967,0.00867 0.072409,0.050416 0.094862,0.043594 0.1683789,-0.051159 -0.071178,-0.037808 0.090168,-0.061894 0.018559,-0.00277 0.037416,0.00295 0.056157,0.00388 0.021973,0.00107 0.043976,0.00143 0.065963,0.00214 0.1076479,-0.1012046 0.00193,-0.023374 0.1236273,-0.061073 0.020828,-0.00645 0.035819,-0.029391 0.057558,-0.031075 0.023288,-0.00181 0.043719,0.025581 0.066709,0.02145 0.020462,-0.00368 0.029886,-0.029034 0.046323,-0.041765 0.017435,-0.013503 0.03668,-0.024484 0.055021,-0.036725 0.086914,-0.016123 0.044239,-0.00822 0.1280276,-0.023716 0.1024174,-0.041028 0.044413,-0.1858686 -0.058005,-0.1448532 v 0 c -0.084995,0.022014 -0.042276,0.00953 -0.1280887,0.03767 -0.028276,0.025581 -0.054007,0.05762 -0.095203,0.063423 -0.019838,0.0028 -0.039778,-0.0078 -0.059763,-0.00638 -0.070361,0.00499 -0.1088856,0.061441 -0.1838008,0.030901 -0.018024,0.01265 -0.035595,0.025968 -0.054072,0.037944 -0.015449,0.010016 -0.032557,0.017384 -0.04762,0.027966 -0.012988,0.00913 -0.020581,0.028171 -0.036213,0.030925 -0.015835,0.0028 -0.029703,-0.012667 -0.045299,-0.016566 -0.045036,-0.01126 -0.040923,-0.0055 -0.083955,0.010162 -0.014276,-8.625e-4 -0.02967,0.003 -0.04283,-0.00259 -0.0186,-0.00792 -0.029647,-0.043447 -0.048567,-0.036325 -0.022413,0.00844 -0.00955,0.052007 -0.02926,0.065621 -0.013374,0.00924 -0.030815,-0.01413 -0.047024,-0.012914 -0.1446539,0.010847 0.064786,0.035959 -0.081016,0.012733 -0.064484,0.050098 -0.00199,0.00885 -0.080377,0.038934 -0.018338,0.00704 -0.033305,0.025343 -0.052942,0.025887 -0.027133,7.435e-4 -0.05139,-0.025557 -0.078331,-0.02225 -0.032739,0.00402 -0.059473,0.028549 -0.089209,0.042824 -0.038578,0.00379 -0.077156,0.00757 -0.115733,0.01135 -0.044345,0.00405 -0.089243,0.00406 -0.1330321,0.012135 -0.051751,0.00954 -0.1000255,0.037752 -0.1525749,0.040552 -0.058982,0.00315 -0.1166272,-0.023386 -0.1756927,-0.023059 -0.1696911,9.517e-4 -0.3248639,0.090141 -0.4955321,0.08423 -0.5953711,0.1590121 0.2471543,-0.071922 -0.3034485,0.097408 -0.048923,0.015046 -0.099258,0.025206 -0.1494217,0.035379 -0.043211,0.00876 -0.088716,0.00741 -0.1305331,0.021384 -0.00654,0.00217 -0.1338247,0.077831 -0.1539299,0.089731 -0.1000244,0.042115 -0.040464,0.1835724 0.05956,0.1414567 z" />
      <path
         style="fill:#000000;stroke-width:3.37229;stroke-opacity:0.526667"
         id="path992"
         d="m 2.933681,6.8376468 c 0.01593,-0.00893 0.031858,-0.017842 0.047787,-0.026765 0.029842,-0.00432 0.062059,-5.056e-4 0.089526,-0.012937 0.03096,-0.014017 0.053097,-0.042436 0.079644,-0.063654 0.035382,-0.018071 0.069177,-0.039662 0.1061461,-0.054211 0.084518,-0.033261 0.1717605,-0.04704 0.2600889,-0.065034 0.072613,-0.034794 0.1534967,-0.04081 0.2291199,-0.06495 0.03263,-0.01042 0.061136,-0.035745 0.095279,-0.038481 0.03165,-0.00253 0.060814,0.027354 0.092324,0.023445 0.2252072,-0.027931 -0.078569,-0.072158 0.1341993,-0.029836 0.039234,-3.569e-4 0.071765,0.00134 0.1104279,-0.00674 0.021414,-0.00447 0.041431,-0.014859 0.063045,-0.018241 0.021185,-0.00332 0.042873,-9.814e-4 0.064303,-0.0017 0.095954,-0.0032 0.043886,-0.00832 0.1412521,0.013393 0.1838909,-0.074017 -0.045351,-0.00264 0.1416422,0.00935 0.023398,0.00152 0.041396,-0.023011 0.064042,-0.029082 0.1523177,-0.040822 -0.023862,0.025908 0.1286148,0.00273 0.021096,-0.0032 0.038797,-0.01778 0.058196,-0.026669 0.020269,-0.00924 0.038851,-0.031474 0.060802,-0.027708 0.029367,0.00504 0.043798,0.049676 0.073573,0.050762 0.027553,0.00101 0.041775,-0.041424 0.069034,-0.04556 0.024508,-0.00372 0.045477,0.025724 0.070229,0.024436 0.1907452,-0.00993 -0.064127,-0.07231 0.1369347,-0.00893 0.092645,-0.00722 0.1807154,-0.03989 0.2726613,-0.051319 0.020843,-0.00259 0.043317,0.00312 0.062845,-0.00462 0.021138,-0.00837 0.035996,-0.027784 0.053993,-0.041679 0.1298657,0.043234 -0.00988,0.010342 0.1133856,-5.948e-4 0.020572,-0.00181 0.040619,0.00774 0.061158,0.00993 0.1839099,0.01946 -0.053499,-0.00834 0.1187824,-0.00456 0.01844,4.164e-4 0.036266,0.00674 0.054398,0.010106 0.063413,0.024163 0.043396,-0.064662 0.078015,-0.072012 0.018752,-0.00398 0.026958,0.032571 0.046033,0.034478 0.00662,6.544e-4 0.036396,-0.047587 0.043712,-0.050568 0.00804,-0.00327 0.017059,0.00317 0.02559,0.00475 0.091861,-0.040389 0.034719,-0.1703011 -0.057144,-0.1298949 v 0 c -0.047544,0.028867 0.015487,-0.00172 -0.050132,-0.00551 -0.00542,-3.273e-4 -0.032066,0.036538 -0.040411,0.040116 -0.011299,0.00484 -0.024582,6.245e-4 -0.036873,9.22e-4 -0.011829,0.00665 -0.023657,0.013306 -0.035483,0.019963 -0.016001,-0.00601 -0.031012,-0.016144 -0.047999,-0.018051 -0.017259,-0.00193 -0.034455,0.00443 -0.051652,0.00686 -0.088824,0.012527 -0.031242,0.0069 -0.1234504,0.013235 -0.1331727,0.017328 0.013738,0.00857 -0.1127313,0.013708 -0.1542063,-0.030627 0.032876,-0.010432 -0.11891,0.036012 -0.022285,0.00682 -0.046056,-0.012509 -0.069216,-0.0099 -0.024121,0.00271 -0.045108,0.018069 -0.068246,0.025402 -0.076607,0.024291 -0.058151,0.018445 -0.1360737,0.015189 -0.1402904,0.050437 0.013922,0.011399 -0.1322878,-0.0057 -0.05057,-0.00591 -0.086581,0.030765 -0.1350161,0.033665 -0.024365,0.00146 -0.047794,-0.013083 -0.072189,-0.012272 -0.020429,6.84e-4 -0.03935,0.011084 -0.059024,0.016631 -0.1539105,-0.041013 0.035457,0.00114 -0.1231105,-0.00723 -0.021212,-0.00114 -0.040649,-0.014005 -0.06185,-0.015355 -0.022164,-0.00139 -0.044123,0.00929 -0.066233,0.00721 -0.024998,-0.00235 -0.047671,-0.023653 -0.072546,-0.020254 -0.027329,0.00373 -0.048271,0.026711 -0.072406,0.040065 -0.024174,0.0061 -0.048618,0.01123 -0.072526,0.018315 -0.023368,0.00692 -0.044922,0.021316 -0.069181,0.023657 -0.055147,0.00533 -0.074855,-0.02385 -0.1276075,-0.028552 -0.035473,-0.00316 -0.087009,0.014448 -0.1198862,0.023564 -0.1604368,0.059555 0.037457,-0.00119 -0.147084,0.00997 -0.029129,0.00175 -0.055954,0.016611 -0.084045,0.024516 -0.033646,0.00946 -0.068057,0.016381 -0.1011596,0.0276 -0.037444,0.012691 -0.070609,0.04327 -0.1101367,0.044013 -0.050323,9.518e-4 -0.097209,-0.026137 -0.1458139,-0.039207 -0.1754243,0.074811 -0.091335,0.029239 -0.2518764,0.1374379 -0.038341,0.018723 -0.083351,0.020212 -0.1224534,0.037286 -0.032305,0.014106 -0.057036,0.043068 -0.090025,0.055488 -0.032644,0.01229 -0.071599,0.0025 -0.1032078,0.017259 -0.023361,0.010904 -0.03566,0.037238 -0.05349,0.055858 -0.07812,0.06696 0.016576,0.1774388 0.094696,0.1104784 z" />
      <path
         style="fill:#000000;stroke-width:3.37229;stroke-opacity:0.526667"
         id="path994"
         d="m 4.1018719,4.3301086 c 0.018074,0.00128 0.037022,0.00957 0.054224,0.00387 0.017563,-0.00582 0.027014,-0.025527 0.042356,-0.035864 0.015323,-0.010319 0.033053,-0.016573 0.049092,-0.025747 0.040583,-0.023216 0.08043,-0.047855 0.1175892,-0.076146 0.1056471,-0.054211 0.02898,-0.2036187 -0.076666,-0.1494076 v 0 c -0.059686,0.1276607 0.019549,-0.00121 -0.081157,0.058833 -0.017328,0.010331 -0.022274,0.033724 -0.035013,0.049365 -0.011954,0.014674 -0.023677,0.030116 -0.038896,0.041368 -0.026042,0.019255 -0.062017,0.021953 -0.086046,0.045137 -0.062645,0.038551 -0.00813,0.1271435 0.054519,0.088593 z" />
    </g>
  </g>
</svg>
